HIERARCHY
ROOT Hips
{
  OFFSET 196.326 95.9168 97.7182
  CHANNELS 6 Xposition Yposition Zposition Zrotation Xrotation Yrotation
  JOINT LeftUpLeg
  {
    OFFSET 8.64259 1.95398 -2.38835
    CHANNELS 3 Zrotation Xrotation Yrotation
    JOINT LeftLeg
    {
      OFFSET 43.7702 0 0
      CHANNELS 3 Zrotation Xrotation Yrotation
      JOINT LeftFoot
      {
        OFFSET 40.6238 0 0
        CHANNELS 3 Zrotation Xrotation Yrotation
        JOINT LeftToeBase
        {
          OFFSET 12.7242 0 0
          CHANNELS 3 Zrotation Xrotation Yrotation
          End Site
          {
            OFFSET 0 0 0
          }
        }
      }
    }
  }
  JOINT RightUpLeg
  {
    OFFSET -8.2249 1.95398 -2.59336
    CHANNELS 3 Zrotation Xrotation Yrotation
    JOINT RightLeg
    {
      OFFSET 43.5653 0 0
      CHANNELS 3 Zrotation Xrotation Yrotation
      JOINT RightFoot
      {
        OFFSET 40.6238 0 0
        CHANNELS 3 Zrotation Xrotation Yrotation
        JOINT RightToeBase
        {
          OFFSET 12.7242 0 0
          CHANNELS 3 Zrotation Xrotation Yrotation
          End Site
          {
            OFFSET 0 0 0
          }
        }
      }
    }
  }
  JOINT Spine
  {
    OFFSET 0.165834 0.87714 6.61349
    CHANNELS 3 Zrotation Xrotation Yrotation
    JOINT Spine1
    {
      OFFSET 7.38963 1.71661e-005 0
      CHANNELS 3 Zrotation Xrotation Yrotation
      JOINT Spine2
      {
        OFFSET 11.9445 1.14441e-005 0
        CHANNELS 3 Zrotation Xrotation Yrotation
        JOINT Spine3
        {
          OFFSET 14.7254 4.19617e-005 0
          CHANNELS 3 Zrotation Xrotation Yrotation
          JOINT Spine4
          {
            OFFSET 10.9679 0 0
            CHANNELS 3 Zrotation Xrotation Yrotation
            JOINT RightShoulder
            {
              OFFSET 2.46616 -1.6653 3.69651
              CHANNELS 3 Zrotation Xrotation Yrotation
              JOINT RightArm
              {
                OFFSET 13.0012 0 0
                CHANNELS 3 Zrotation Xrotation Yrotation
                JOINT RightForeArm
                {
                  OFFSET 28.7848 1.52588e-005 0
                  CHANNELS 3 Zrotation Xrotation Yrotation
                  JOINT RightHand
                  {
                    OFFSET 26.5688 1.52588e-005 0
                    CHANNELS 3 Zrotation Xrotation Yrotation
                    End Site
                    {
                      OFFSET 0 0 0
                    }
                  }
                }
              }
            }
            JOINT LeftShoulder
            {
              OFFSET 2.38034 -1.29275 -3.75231
              CHANNELS 3 Zrotation Xrotation Yrotation
              JOINT LeftArm
              {
                OFFSET 16.3182 6.10351e-005 0
                CHANNELS 3 Zrotation Xrotation Yrotation
                JOINT LeftForeArm
                {
                  OFFSET 27.0901 0 0
                  CHANNELS 3 Zrotation Xrotation Yrotation
                  JOINT LeftHand
                  {
                    OFFSET 24.5451 1.52588e-005 0
                    CHANNELS 3 Zrotation Xrotation Yrotation
                    End Site
                    {
                      OFFSET 0 0 0
                    }
                  }
                }
              }
            }
            JOINT Neck
            {
              OFFSET 5.0226 -0.0266342 0
              CHANNELS 3 Zrotation Xrotation Yrotation
              JOINT Head
              {
                OFFSET 6.69363 2.86102e-005 0
                CHANNELS 3 Zrotation Xrotation Yrotation
                End Site
                {
                  OFFSET 0 0 0
                }
              }
            }
          }
        }
      }
    }
  }
}
MOTION
Frames:	11
Frame Time:	0.0416667
35.8397 91.127 -126.391 64.2397 -82.2465 67.1531 -172.083 -5.20761 96.4243 -33.6304 24.8105 1.9967 45.2371 -7.01334 3.41767 78.577 44.6284 -12.7584 179.148 35.0615 93.3933 -30.1671 14.0157 2.06958 60.8276 -0.845483 -0.38767 43.3877 2.10294 18.3227 -1.26263 7.32416 -90.5183 12.2217 -2.75511 -0.726704 0.553576 -2.78441 -0.604667 -21.9991 -2.40928 -1.52152 -1.9865 -2.40927 -1.52152 79.5553 -53.5087 -115.171 28.0319 -4.54021 21.3004 -6.61928 -14.1423 -34.506 -3.0954 -0.383126 5.83833 -100.415 -40.5747 59.537 -26.4189 4.98124 0.95862 10.7613 7.85609 -49.1249 18.5183 1.87375 6.25321 9.58927 2.53885 -0.477036 -1.24396 2.77158 3.75724 
35.0502 91.4455 -117.693 70.0055 -84.3424 72.7176 -173.717 1.34927 96.5924 -48.0628 20.8638 2.0046 34.5869 -13.5592 0.255932 41.2103 13.9126 0.868342 178.545 32.0954 95.4139 -37.8932 12.2165 1.90286 65.6294 -1.71398 -0.906981 35.0446 0.225472 20.2508 -1.04871 7.39632 -90.4517 12.0762 -2.29819 -0.648922 0.407186 -2.32451 -0.547103 -22.1397 -1.99689 -1.30983 -2.12706 -1.99688 -1.30983 80.6186 -51.9608 -114.227 30.283 -3.0098 18.3708 -8.82045 -14.2678 -35.7525 -2.34232 -0.335686 6.73376 -101.364 -40.9221 58.1991 -28.0257 5.61091 2.05404 7.22063 7.06605 -41.3131 17.9874 1.73574 5.77456 9.7199 2.09971 -0.236105 -1.73069 2.24161 3.05786 
34.5055 93.316 -108.965 55.2647 -87.081 57.4702 -173.515 10.6791 94.8957 -56.2569 18.3047 0.953862 41.3775 -8.79706 5.80596 48.1114 20.2074 -4.44418 179.369 24.9483 96.4785 -35.7046 11.4333 1.03652 69.0249 -2.45619 -1.29562 30.2347 -1.00029 21.4118 -0.609516 7.34619 -90.286 12.1819 -1.34691 -0.421904 0.511628 -1.36417 -0.362205 -22.0275 -1.15785 -0.807235 -2.01487 -1.15785 -0.807248 80.2171 -50.8893 -115.222 31.115 -5.91412 16.2511 -6.59555 -12.2601 -39.5021 -6.59975 -0.645622 5.40379 -101.411 -41.7573 58.5097 -29.2051 7.56587 2.60811 5.86359 8.91593 -35.6214 14.9266 1.40327 5.4216 8.35226 1.47185 0.0047504 -1.44448 1.55942 2.52893 
33.7307 94.9991 -100.358 -30.6102 -87.4591 -30.6312 -172.025 17.5355 91.7843 -51.4853 15.6185 -0.687957 47.3272 -4.39839 8.37514 55.1248 26.0774 -7.65819 -179.321 18.0934 95.9712 -31.8709 9.62157 -1.08903 70.7032 -2.72386 -1.41512 31.4143 -0.742718 22.3656 -0.171429 7.27293 -89.9182 12.3277 -0.301759 0.197944 0.656765 -0.292758 0.21103 -21.8785 -0.347302 0.0981037 -1.86588 -0.347301 0.0980988 80.3789 -50.0512 -115.311 31.3481 -7.628 14.1369 -10.9185 -12.0685 -48.9809 -7.48065 -0.692721 4.89153 -100.823 -41.7775 59.4373 -32.3558 6.18896 4.95862 6.79818 10.8912 -33.1494 12.8647 1.03444 4.01067 7.08973 1.43108 0.682086 -0.928915 1.36164 1.83868 
33.4733 96.1027 -92.0971 -56.9308 -84.9576 -57.4597 -171.998 21.324 90.2968 -37.2932 11.789 -1.30445 53.6713 1.15477 11.7541 55.6504 28.6999 -1.67213 179.912 10.7086 95.0197 -26.7798 5.86533 -0.693548 70.485 -2.76612 -1.42985 33.4441 -0.158297 19.8397 0.178107 7.2198 -89.8071 12.4334 0.445666 0.334208 0.762519 0.459946 0.314262 -21.7727 0.324626 0.452693 -1.76 0.324622 0.452695 81.3821 -47.9707 -114.626 31.5034 -8.54046 12.2134 -15.2995 -10.7479 -58.5504 -7.26218 -0.700226 5.2229 -100.359 -41.9634 60.2426 -34.978 6.29261 8.63512 5.40423 8.16327 -33.1568 12.6893 1.02184 4.02442 6.19697 1.77214 1.76662 -0.44025 1.46982 1.23484 
33.475 96.0227 -83.8805 -53.1889 -82.2428 -53.4649 -173.557 24.3438 90.1579 -19.0477 10.6679 -0.891523 57.1804 4.21428 12.658 56.4383 31.025 2.15403 178.973 4.92908 94.4348 -22.1979 4.46048 -0.0748091 71.896 -3.37807 -1.71591 34.7831 0.163045 20.154 0.403089 7.09702 -89.8175 12.679 0.887822 0.260118 1.00838 0.898418 0.220793 -21.5285 0.768603 0.514937 -1.51586 0.768601 0.514934 82.1109 -46.7537 -113.987 29.271 -9.96778 8.13766 -17.2417 -8.67472 -64.5968 -8.54883 -0.746224 4.40409 -99.7975 -42.2766 61.2548 -36.8841 6.73412 10.9708 6.34996 10.316 -33.8692 12.3291 1.08747 4.7425 6.87247 1.84595 3.4414 -1.13791 1.12212 -0.138 
33.4277 94.8794 -75.6727 -54.222 -79.6149 -54.8999 -175.075 28.3267 90.7949 -6.67044 13.012 -0.811572 58.5384 4.31036 12.259 59.9043 33.4135 -0.838979 178.489 0.1291 93.4587 -20.2239 2.45499 -0.801831 72.7418 -4.1869 -2.08772 40.5253 1.46472 18.1263 0.646255 7.02705 -89.7595 12.8185 1.39858 0.313546 1.14826 1.41101 0.251662 -21.3916 1.23967 0.719423 -1.37891 1.23967 0.719428 82.1314 -46.7976 -113.938 25.2186 -10.9654 4.67442 -20.6333 -6.87898 -70.6429 -9.53632 -0.89564 5.55219 -99.3108 -42.7908 62.2299 -38.2085 6.62548 12.8708 6.2376 9.93168 -34.3554 13.9552 1.29195 5.26241 7.75016 2.30008 3.99598 -2.80454 1.43396 0.0891336 
33.6602 93.2563 -67.3752 -60.1958 -76.8249 -61.0375 -175.389 33.4132 91.5519 -7.8596 15.7966 -1.00623 60.8058 5.54285 13.5538 60.6063 33.6507 -1.9202 177.908 -2.34843 91.5813 -23.8411 -2.40263 -2.50684 71.2362 -4.19959 -2.15269 48.8213 3.38476 18.6778 0.949304 7.04461 -89.6954 12.7828 2.03099 0.366916 1.1134 2.04515 0.277123 -21.432 1.82679 0.960527 -1.4194 1.82678 0.960519 82.5191 -45.3848 -113.891 24.7316 -9.28774 1.78455 -24.3167 -8.05879 -71.1536 -11.0412 -0.845392 3.44742 -98.0879 -43.2947 64.34 -38.9816 4.5032 14.5934 6.84828 8.12372 -36.364 16.3828 1.44511 4.92245 8.7069 2.78116 4.4061 -4.6105 1.7807 -0.0708566 
34.1415 91.8355 -57.414 -63.7838 -76.4845 -65.8019 -174.508 35.0994 89.4497 -18.7101 14.9305 -1.60807 59.8137 4.65703 12.3108 55.5177 28.019 -2.982 177.288 -3.17625 88.3808 -32.6629 -5.86593 -5.0223 61.3129 -1.05127 -0.557786 58.2339 7.16413 25.5743 1.07559 7.07907 -89.4822 12.7103 2.38378 0.753614 1.04138 2.41464 0.64792 -21.5059 2.04706 1.43542 -1.49321 2.04706 1.43542 82.4433 -45.403 -114.001 25.3694 -7.5475 3.48253 -25.4416 -8.68284 -70.5395 -12.9586 -1.16827 5.68213 -97.2142 -42.5351 65.4187 -39.1036 3.08142 16.2753 8.48764 7.42389 -41.5399 18.9323 1.98599 6.60315 8.06625 2.40057 2.75489 -5.9615 1.77903 0.570707 
34.4689 90.3744 -47.0642 -64.1848 -76.6338 -66.5194 -173.113 37.1323 87.895 -33.6543 16.284 -2.47368 59.4627 5.05083 15.097 59.8632 23.4544 -27.8379 179.266 3.66631 88.3395 -48.2984 -2.53631 -6.06106 38.6047 3.64455 3.95248 37.3596 0.939442 31.4281 1.06843 6.9748 -89.3809 12.9156 2.41827 0.945666 1.24666 2.45755 0.838261 -21.2993 2.02226 1.62891 -1.28661 2.02226 1.62891 82.5616 -46.6788 -113.319 25.491 -8.10714 6.67107 -22.3145 -9.585 -65.853 -14.695 -1.35285 6.13698 -96.7675 -41.4237 65.7047 -36.4963 1.44749 16.6856 9.19002 5.22375 -47.5026 20.8154 2.22977 6.90457 6.69784 2.31061 0.934625 -7.95461 2.07141 1.21261 
34.379 89.1284 -37.428 -71.0595 -80.9605 -74.3467 -173.515 33.4852 84.3031 -44.0322 16.4104 -1.86 62.9551 10.9119 20.6152 51.1548 15.4156 -39.0374 178.422 16.85 89.6357 -69.2268 9.90679 -4.79534 37.0632 1.26087 1.92243 31.0492 -0.639735 16.1662 0.536598 7.27032 -89.1552 12.3224 1.4674 1.52295 0.651533 1.53301 1.45691 -21.8798 0.941929 1.89347 -1.86714 0.941932 1.89346 82.5334 -48.4043 -112.711 25.306 -6.47678 9.07757 -16.3594 -9.61787 -60.4896 -26.3758 -2.08688 4.76838 -96.6309 -38.7031 64.8603 -27.7383 -1.99231 14.3159 9.71474 2.63641 -56.1801 24.3093 2.51391 6.58504 4.27283 2.47307 -1.60976 -7.00179 2.71397 2.80913 
